<svg width="306.791" height="306.791" viewBox="0 0 81.172 81.172"
    xmlns:xlink="http://www.w3.org/1999/xlink" xmlns="http://www.w3.org/2000/svg">
    <defs>
        <radialGradient xlink:href="#a" id="b" cx="-105.352" cy="-53.014" fx="-105.352" fy="-53.014"
            r="132.164" gradientTransform="matrix(1 0 0 1.15443 0 8.187)"
            gradientUnits="userSpaceOnUse" />
        <linearGradient id="a">
            <stop style="stop-color:#00d4aa;stop-opacity:1" offset="0" />
            <stop style="stop-color:#00d3aa;stop-opacity:1" offset=".387" />
            <stop style="stop-color:#0094a8;stop-opacity:1" offset="1" />
        </linearGradient>
    </defs>
    <path
        style="fill:url(#b);stroke:#00f1cd;stroke-width:21.6497;stroke-linecap:butt;stroke-linejoin:round;stroke-dasharray:none;paint-order:stroke markers fill"
        d="M26.652-129.216-29.139 79-237.357 23.21l55.792-208.217z"
        transform="rotate(-14.999 225.287 -279.834) scale(.34219)" />
    <path
        style="fill:#fff;fill-opacity:1;stroke:none;stroke-width:6.82001;stroke-linecap:butt;stroke-linejoin:round;stroke-dasharray:none;paint-order:stroke markers fill"
        d="M97.537 105.6c1.155 4.647 1.723 9.415 2.255 14.164.428 4.722.635 9.488.05 14.207-.355 2.86-.593 3.482-1.275 6.243-.975 3.286-2.378 6.412-3.884 9.482l4.98 2.824c1.458-3.14 2.851-6.317 3.826-9.646.681-2.783.932-3.457 1.285-6.337.581-4.748.375-9.548-.002-14.302-.482-4.7-1.022-9.4-1.875-14.05z"
        transform="translate(-54.138 -71.896) scale(.83494)" />
    <path
        style="fill:#fff;fill-opacity:1;stroke:none;stroke-width:6.82001;stroke-linecap:butt;stroke-linejoin:round;stroke-dasharray:none;paint-order:stroke markers fill"
        d="M92.225 111.94c3.242-2.515 7.347-3.48 11.226-4.538 4.557-1.178 9.264-1.774 13.943-.98 2.972.503 4.37.888 6.283 1.965 1.059.597 2.735 2.412 2.735 2.412 1.802 1.73 3.066 3.5 4.41 5.573 1.801 2.994 2.654 6.346 3.243 9.751.46 3.238.6 6.513.386 9.775-.317 3.53-1.632 6.848-3.414 9.889-.416.71-.888 1.388-1.332 2.082-1.388 1.91-2.872 3.738-4.697 5.25-1.863 1.544-3.933 2.715-6.05 3.863-3.844 1.94-7.863 3.553-12.018 4.694-.85.233-1.712.424-2.568.636-2.657.676-5.363.926-8.094.9l4.688 3.4c2.725-.068 5.421-.389 8.065-1.088 5.07-1.31 10.05-2.974 14.69-5.435 1.808-1.002 2.529-1.341 4.234-2.531 2.648-1.848 4.827-4.17 6.655-6.827.452-.706.93-1.396 1.357-2.118 1.83-3.094 3.245-6.454 3.613-10.055.045-.576.11-1.15.135-1.728.124-2.724-.15-5.462-.447-8.165-.57-3.48-1.411-6.91-3.204-9.988-1.36-2.144-2.62-3.948-4.441-5.758-3.508-3.485-7.984-5.726-12.339-7.973-2.807-1.025-3.356-1.385-6.355-1.833-4.728-.707-9.461-.028-14.054 1.144-4.043 1.072-8.309 2.013-11.72 4.575z"
        transform="translate(-54.138 -71.896) scale(.83494)" />
</svg>